<?xml version="1.0" encoding="UTF-8" standalone="no"?>
<svg
   viewBox="0 0 128.33 65.05341"
   version="1.1"
   id="svg54"
   sodipodi:docname="979931e384fa0761fcaa34641c6d31a5.svg"
   width="128.33"
   height="65.053413"
   xmlns:inkscape="http://www.inkscape.org/namespaces/inkscape"
   xmlns:sodipodi="http://sodipodi.sourceforge.net/DTD/sodipodi-0.dtd"
   xmlns="http://www.w3.org/2000/svg"
   xmlns:svg="http://www.w3.org/2000/svg">
  <sodipodi:namedview
     id="namedview56"
     pagecolor="#ffffff"
     bordercolor="#666666"
     borderopacity="1.0"
     inkscape:pageshadow="2"
     inkscape:pageopacity="0.0"
     inkscape:pagecheckerboard="0" />
  <defs
     id="defs4">
    <style
       id="style2">.cls-1{fill:#000;}.cls-2{fill:#ed3438;}</style>
  </defs>
  <g
     id="Layer_2"
     data-name="Layer 2">
    <g
       id="Layer_1-2"
       data-name="Layer 1">
      <g
         id="Layer_2-2"
         data-name="Layer 2">
        <g
           id="Layer_1-2-2"
           data-name="Layer 1-2">
          <path
             class="cls-1"
             d="M 54.94,44.63 H 49 a 4.15,4.15 0 0 1 -3,-1.21 4,4 0 0 1 -1.25,-3 V 15.26 H 34.61 v 24 a 13.54,13.54 0 0 0 1.14,5.54 14.66,14.66 0 0 0 3.07,4.52 A 14.3,14.3 0 0 0 49,53.43 H 65.34 V 15.27 h -10.4 z"
             id="path6" />
          <polygon
             class="cls-1"
             points="79.95,0 69.87,0 69.8,53.43 79.95,53.43 "
             id="polygon8" />
          <rect
             class="cls-1"
             x="84.529999"
             y="15.27"
             width="10.15"
             height="38.16"
             id="rect10" />
          <polygon
             class="cls-1"
             points="126.33,19.23 115.95,19.23 120.68,27.71 126.33,27.71 "
             id="polygon12" />
          <path
             class="cls-1"
             d="m 115.91,43.35 a 4,4 0 0 1 -1.26,-3 v -35 H 104.5 V 19.23 H 99 v 8.48 h 5.5 v 11.44 a 13.73,13.73 0 0 0 1.14,5.58 14.8,14.8 0 0 0 3.09,4.54 14.4,14.4 0 0 0 10.19,4.16 h 7.41 v -8.86 h -7.41 a 4.12,4.12 0 0 1 -3,-1.22"
             id="path14" />
          <path
             class="cls-1"
             d="m 27.8,34.57 a 15.51,15.51 0 0 0 -3.55,-2 C 22.9,32.01 21.41,31.45 19.78,30.91 L 19.3,30.76 a 1.59,1.59 0 0 0 -0.48,-0.07 c -0.74,-0.25 -1.49,-0.52 -2.26,-0.81 -0.77,-0.29 -1.4,-0.59 -2.07,-0.93 A 6.39,6.39 0 0 1 13,28 a 1.63,1.63 0 0 1 -0.6,-1.23 2.19,2.19 0 0 1 0.37,-1.36 2.92,2.92 0 0 1 0.93,-0.78 3.26,3.26 0 0 1 1.22,-0.37 9.34,9.34 0 0 1 1.18,-0.07 14.33,14.33 0 0 1 5.33,1 12.22,12.22 0 0 1 4.21,2.69 l 0.08,0.08 4.51,-8.21 V 19.6 a 24.6,24.6 0 0 0 -6.73,-3.14 25.33,25.33 0 0 0 -7.18,-1.07 17.36,17.36 0 0 0 -5.54,0.84 12.7,12.7 0 0 0 -4.29,2.4 10.47,10.47 0 0 0 -2.76,3.57 11.27,11.27 0 0 0 -1,4.72 v 0.15 a 9.08,9.08 0 0 0 1.19,4.83 9.94,9.94 0 0 0 2.92,3.1 15.21,15.21 0 0 0 4,1.92 c 1.48,0.46 3,0.9 4.44,1.29 a 2.41,2.41 0 0 0 0.7,0.18 2.79,2.79 0 0 1 0.7,0.19 24.58,24.58 0 0 1 3.32,1.25 2.14,2.14 0 0 1 1.41,2 q 0,2.81 -4.37,2.81 a 15.08,15.08 0 0 1 -6,-1.22 15.23,15.23 0 0 1 -5,-3.59 V 39.75 L 1,47.68 0.93,47.76 1,47.83 a 28.38,28.38 0 0 0 7.54,4.17 24.35,24.35 0 0 0 8.28,1.46 q 6.74,0 10.47,-3.18 A 10.92,10.92 0 0 0 31,41.45 v -0.08 a 8.13,8.13 0 0 0 -3.22,-6.8"
             id="path16" />
          <polygon
             class="cls-2"
             points="94.78,8.93 84.42,8.93 89.6,0 "
             id="polygon18" />
          <path
             class="cls-1"
             d="m 123,6.49 a 3.29,3.29 0 0 1 -3.26,-2.74 3.24,3.24 0 0 1 2.45,-3.64 3.31,3.31 0 0 1 4,2.33 3.23,3.23 0 0 1 -2.35,3.93 l -0.33,0.07 H 123 m 0,-5.88 a 2.85,2.85 0 0 0 -1,0.18 2.63,2.63 0 0 0 -1.56,3.38 2.46,2.46 0 0 0 0.33,0.62 2.83,2.83 0 0 0 3.83,0.62 2.61,2.61 0 0 0 1,-3.19 2.75,2.75 0 0 0 -2.6,-1.56"
             id="path20" />
          <path
             class="cls-1"
             d="m 124.56,4.51 h -0.78 a 0.14,0.14 0 0 1 -0.1,-0.08 L 123.05,3.6 A 0.36,0.36 0 0 0 122.69,3.52 V 4.4 c 0,0.08 0,0.12 -0.1,0.11 h -0.51 c -0.07,0 -0.09,0 -0.09,-0.09 V 1.88 c 0,-0.06 0,-0.09 0.08,-0.09 h 1.57 a 0.67,0.67 0 0 1 0.58,0.5 0.77,0.77 0 0 1 -0.22,0.82 c -0.08,0.07 -0.18,0.13 -0.28,0.21 0.3,0.37 0.59,0.75 0.88,1.12 v 0 m -1.9,-1.86 a 1.41,1.41 0 0 0 0,0.29 c 0,0 0,0.08 0.06,0.08 a 1.85,1.85 0 0 0 0.47,0 0.34,0.34 0 0 0 0.29,-0.38 v 0 c 0,-0.17 -0.11,-0.28 -0.31,-0.3 h -0.44 c -0.06,0 -0.08,0 -0.08,0.08 v 0.28"
             id="path22" />
          <path
             class="cls-1"
             d="m 0,59.15 h 1.81 a 3.61,3.61 0 0 1 1.8,0.35 1.22,1.22 0 0 1 0.56,1.12 1.46,1.46 0 0 1 -0.24,0.86 1,1 0 0 1 -0.66,0.4 v 0 A 1.29,1.29 0 0 1 4.07,62.34 1.68,1.68 0 0 1 3.74,64.49 2.52,2.52 0 0 1 2.18,65 H 0 Z m 1.23,2.31 H 2 A 1.33,1.33 0 0 0 2.73,61.3 0.56,0.56 0 0 0 3,60.79 0.5,0.5 0 0 0 2.76,60.31 1.5,1.5 0 0 0 1.98,60.16 h -0.7 z m 0,1 V 64 H 2 A 1.18,1.18 0 0 0 2.75,63.81 0.72,0.72 0 0 0 3,63.21 C 3,62.73 2.65,62.49 2,62.49 Z"
             id="path24" />
          <path
             class="cls-1"
             d="m 13.73,65 h -3.36 v -5.85 h 3.36 v 1 h -2.12 v 1.28 h 2 v 1 h -2 V 64 h 2.12 z"
             id="path26" />
          <path
             class="cls-1"
             d="M 23.27,63.36 A 1.5,1.5 0 0 1 22.7,64.6 2.54,2.54 0 0 1 21.12,65.05 3.77,3.77 0 0 1 19.47,64.7 v -1.14 a 9.25,9.25 0 0 0 1,0.37 3.15,3.15 0 0 0 0.75,0.1 1.12,1.12 0 0 0 0.62,-0.15 0.58,0.58 0 0 0 0.22,-0.46 0.57,0.57 0 0 0 -0.1,-0.31 1.16,1.16 0 0 0 -0.28,-0.26 c -0.25,-0.14 -0.5,-0.27 -0.76,-0.39 a 4.35,4.35 0 0 1 -0.8,-0.48 1.83,1.83 0 0 1 -0.42,-0.54 1.49,1.49 0 0 1 -0.16,-0.72 1.51,1.51 0 0 1 0.52,-1.21 2.16,2.16 0 0 1 1.45,-0.44 3.63,3.63 0 0 1 0.87,0.1 8.82,8.82 0 0 1 0.86,0.31 l -0.4,1 a 5.41,5.41 0 0 0 -0.77,-0.27 2.47,2.47 0 0 0 -0.6,-0.08 0.81,0.81 0 0 0 -0.54,0.17 0.61,0.61 0 0 0 -0.11,0.71 0.76,0.76 0 0 0 0.24,0.23 5.8,5.8 0 0 0 0.78,0.41 3,3 0 0 1 1.12,0.78 1.55,1.55 0 0 1 0.31,0.93 z"
             id="path28" />
          <path
             class="cls-1"
             d="m 33.24,61 a 1.8,1.8 0 0 1 -0.59,1.43 2.5,2.5 0 0 1 -1.67,0.5 H 30.45 V 65 h -1.23 v -5.85 h 1.86 a 2.45,2.45 0 0 1 1.61,0.46 1.67,1.67 0 0 1 0.55,1.39 z m -2.79,0.92 h 0.41 A 1.34,1.34 0 0 0 31.71,61.7 0.78,0.78 0 0 0 32,61 0.81,0.81 0 0 0 31.76,60.36 1.09,1.09 0 0 0 31.02,60.15 h -0.56 z"
             id="path30" />
          <path
             class="cls-1"
             d="m 44.52,62.05 a 3.16,3.16 0 0 1 -0.72,2.23 3.12,3.12 0 0 1 -4.11,0 3.17,3.17 0 0 1 -0.69,-2.23 3.09,3.09 0 0 1 0.72,-2.22 3.13,3.13 0 0 1 4.12,0 3.18,3.18 0 0 1 0.68,2.22 z m -4.25,0 a 2.38,2.38 0 0 0 0.37,1.47 1.29,1.29 0 0 0 1.11,0.5 c 1,0 1.47,-0.66 1.47,-2 0,-1.34 -0.49,-2 -1.47,-2 a 1.29,1.29 0 0 0 -1.11,0.49 2.46,2.46 0 0 0 -0.37,1.54 z"
             id="path32" />
          <path
             class="cls-1"
             d="m 55.3,65 h -1.4 l -1.52,-2.45 -0.53,0.37 V 65 h -1.23 v -5.85 h 1.23 v 2.66 l 0.49,-0.68 1.58,-2 h 1.37 l -2,2.58 z"
             id="path34" />
          <path
             class="cls-1"
             d="m 64.27,65 h -3.35 v -5.85 h 3.35 v 1 h -2.11 v 1.28 h 2 v 1 h -2 V 64 h 2.11 z"
             id="path36" />
          <path
             class="cls-1"
             d="m 77.39,65 v -5.85 h 1.23 V 64 H 81 v 1 z"
             id="path38" />
          <path
             class="cls-1"
             d="m 86.89,65 v -5.85 h 1.24 V 65 Z"
             id="path40" />
          <path
             class="cls-1"
             d="m 97.8,59.15 h 1.25 l -2,5.82 h -1.33 l -2,-5.82 H 95 l 1.1,3.47 c 0.06,0.2 0.12,0.44 0.19,0.71 0.07,0.27 0.1,0.46 0.12,0.57 a 9.5,9.5 0 0 1 0.3,-1.28 z"
             id="path42" />
          <path
             class="cls-1"
             d="m 104.67,65 v -5.85 h 1.24 V 65 Z"
             id="path44" />
          <path
             class="cls-1"
             d="m 117.43,65 h -1.57 l -2.54,-4.4 v 0 c 0,0.78 0.07,1.33 0.07,1.66 V 65 h -1.1 v -5.85 h 1.56 l 2.53,4.36 v 0 c 0,-0.76 -0.06,-1.29 -0.06,-1.6 v -2.76 h 1.12 z"
             id="path46" />
          <path
             class="cls-1"
             d="m 126,61.7 h 2.31 v 3 a 7.8,7.8 0 0 1 -1.06,0.26 6.73,6.73 0 0 1 -1,0.07 2.57,2.57 0 0 1 -2,-0.77 3.26,3.26 0 0 1 -0.69,-2.23 2.92,2.92 0 0 1 0.8,-2.19 3.08,3.08 0 0 1 2.24,-0.79 4.49,4.49 0 0 1 1.73,0.35 l -0.41,1 a 2.93,2.93 0 0 0 -1.33,-0.32 1.62,1.62 0 0 0 -1.28,0.54 2.07,2.07 0 0 0 -0.48,1.45 2.34,2.34 0 0 0 0.39,1.45 1.32,1.32 0 0 0 1.12,0.5 4.15,4.15 0 0 0 0.79,-0.08 V 62.73 H 126 Z"
             id="path48" />
        </g>
      </g>
    </g>
  </g>
</svg>
